<?xml version="1.0" encoding="UTF-8"?>
<svg id="Capa_1" data-name="Capa 1" xmlns="http://www.w3.org/2000/svg" viewBox="0 0 1680.26 592.48">
  <g id="THrGD2.tif">
    <g>
      <path d="M269.03,.12c7.38-.52,14.67,.7,21.85,1.87,4.6,.75,9.61,1.43,13.59,4.54,.69,.54,1.55,.5,2.37,.65,6.09,1.15,12.19,2.04,18.17,4,5.68,1.86,10.34,5.54,15.82,7.5,4.82,1.73,7.75,5.85,11.91,8.37,1.14,.69,2.09,1.62,3.52,1.69,.71,.03,1.24,.48,1.57,1.1,1.54,2.86,4.24,4.38,6.91,5.91,2.03,1.16,3.99,2.41,5.26,4.48,.71,1.16,1.75,2.08,2.88,2.72,3.53,1.99,5.63,5.59,9,7.76,1.17,.75,1.51,2.27,2.78,3.28,4.58,3.64,9.79,3.31,15.01,3.11,7.18-.28,14.3,.34,21.42,1.1,1.32,.14,2.59,.43,3.72,1.29,2.3,1.73,5.19,1.65,7.83,2.31,5.62,1.42,11.54,2.49,16.65,4.8,5.39,2.43,11.02,4.16,16.5,6.04,5.13,1.76,7.86,6.25,12.44,8.33,.91,.41,1.73,.95,2.76,1.1,3.88,.55,6.68,2.83,8.91,5.85,.87,1.18,1.74,2.15,3.22,2.57,1.55,.45,2.82,1.45,3.89,2.64,3.41,3.8,7.68,6.63,11.33,10.12,4.05,3.87,8.02,7.87,10.84,12.81,1.57,2.74,4.52,4.3,6,7.12,.34,.64,1.07,1.1,1.34,1.76,.83,2,2.25,3.66,3.26,5.47,2.31,4.17,5.34,8.03,6.44,12.84,.31,1.37,1.13,2.51,1.91,3.71,2.42,3.69,4.87,7.24,5.77,11.87,1.44,7.38,3.54,14.67,6.39,21.69,1.02,2.51,1.08,5.22,1.3,7.85,.37,4.47,.48,8.96,.57,13.45,.1,5.15,.04,10.3,.49,15.46,.48,5.57-.34,11.13-.69,16.69-.19,3.01-2.17,5.54-2.72,8.51-.18,.96-.57,1.91-.59,2.91-.09,3.92-2.12,7.26-3.24,10.87-2.76,8.87-1.3,16.9,4.68,24.03,.61,.73,1.06,1.44,1.31,2.34,1.13,4.02,2.2,8.22,4.58,11.55,3.81,5.35,4.45,11.56,6.3,17.49,1.5,4.81,3.06,9.63,4.75,14.4,1.73,4.9,1.87,10.14,2.09,15.25,.46,10.81,0,21.63,.2,32.45,.12,6.66-1.82,13.05-4.24,19.32-2.05,5.31-3.69,10.83-4.34,16.55-.11,.94-.39,1.78-1.09,2.45-4.45,4.22-6.46,9.7-8,15.43-.13,.47-.25,1.15-.58,1.32-3.86,1.98-4.79,6-6.56,9.4-.71,1.37-1.85,2.26-2.87,3.34-2.02,2.12-3.76,4.54-5.39,6.99-1.24,1.87-2.3,3.86-4.05,5.34-5.39,4.54-9.84,10.1-15.87,14.01-2.12,1.37-4.54,2.81-6.11,5.15-1.07,1.6-3.09,2.18-4.77,3.1-2.8,1.53-5.46,3.06-7.79,5.49-2.12,2.21-5.05,4.29-8.18,4.93-4.22,.87-7.39,3.41-10.59,5.77-2.97,2.2-6.35,2.68-9.6,3.86-5.33,1.93-11.15,2.66-15.83,6.2-1.52,1.15-3.24,.59-4.84,.68-2.02,.11-3.57,.8-5.22,1.93-5.23,3.56-9.45,7.82-11.53,13.99-.81,2.41-3.38,3.58-4.81,5.61-.57,.8-1.59,1.37-1.76,2.38-1.05,6.44-6.23,9.9-10.17,14.27-4.83,5.35-10.28,10.05-15.34,15.16-3.15,3.18-7.02,5.38-10.51,8.07-5.98,4.61-13.03,7.47-18.98,12.11-1.86,1.45-4.39,1.5-6.64,1.97-4.06,.86-7.47,2.99-10.75,5.29-1.97,1.38-4,1.89-6.3,2.46-6.24,1.56-12.69,1.4-18.93,3-6.25,1.6-12.73,2.91-19.13,3.03-4.7,.09-9.55,.32-14.35-.79-6.8-1.58-13.88-1.38-20.79-2.35-6.33-.89-12.63-2.02-18.89-3.29-1.6-.33-3.32-1.07-4.38-2.66-.29-.44-.88-.86-1.4-.95-2.93-.49-5.32-2.46-8.17-3.02-3.93-.76-6.9-3.16-10.23-5.06-3.46-1.97-6.58-4.6-10.64-5.66-2.49-.64-4.04-3.06-5.73-4.96-.61-.69-1.05-1.5-1.98-1.78-3.19-.97-5.18-3.6-7.31-5.79-2.38-2.45-4.69-4.81-7.62-6.65-3.46-2.18-6.16-5.33-8.65-8.51-5.03-6.41-11.15-9.16-19.41-7.66-5.81,1.05-11.77,.74-17.66-.01-4.86-.62-9.79-.82-14.59-1.74-7.23-1.39-14.45-2.97-21.52-5.01-2.89-.84-6.45-1.3-8.49-3.1-2.68-2.37-6.43-2.75-8.71-5.89-1.35-1.86-4.32-2.6-6.65-3.66-1.58-.72-3.29-1.13-4.96-1.65-.78-.24-1.46-.71-1.58-1.46-.35-2.08-1.96-2.68-3.56-3.46-3.38-1.63-6.37-3.63-8.78-6.73-1.42-1.82-3.55-3.25-5.33-4.89-4.87-4.49-9.15-9.46-13.53-14.39-3.81-4.28-7.06-9.08-10.97-13.12-3.73-3.86-5.77-8.72-9.42-12.5-2.39-2.48-2.06-6.28-3.55-9.22-1.93-3.82-2.4-8.28-5.35-11.66-1.29-1.48-.98-3.67-1.63-5.44-2.22-6.09-3.45-12.44-5.23-18.63-1.24-4.31-2.83-8.54-3.21-13-.73-8.57-.61-17.06,.9-25.68,.75-4.28,2.94-7.95,3.35-12.26,.41-4.28,1.75-8.53,2.16-12.76,.67-6.87,2.76-13.42,3.51-20.29,.56-5.12-1.96-8.7-3.31-12.87-1.04-3.2-3.35-5.76-5.44-8.47-2.11-2.75-4.11-6-4.64-9.77-.35-2.48-1.64-4.54-3.06-6.67-2.21-3.32-4.39-6.89-4.76-11.04-.3-3.39-.67-6.78-.65-10.2,.05-11.9-1.5-23.71-2.24-35.56-.3-4.79,.2-9.57,1.06-14.34,.75-4.16,1.04-8.42,1.19-12.65,.27-7.43,3.09-13.97,6.68-20.26,.74-1.29,.79-2.69,1.31-4,2.31-5.86,4.51-11.73,7.96-17.1,1.72-2.67,2.59-5.91,4.18-8.74,.24-.43,.38-1.14,.73-1.27,2.61-.93,3.72-3.34,5.33-5.24,3.9-4.57,8.5-8.55,11.82-13.6,.84-1.27,1.77-2,3.19-2.5,3.37-1.18,5.06-4.44,7.65-6.6,3.18-2.66,6.24-5.47,9.91-7.44,2.64-1.41,5.18-2.82,6.83-5.49,.59-.96,1.7-1.64,2.93-1.73,1.3-.1,2.46-.58,3.43-1.38,2.53-2.11,5.93-2.95,8.12-5.58,.58-.69,1.57-.93,2.49-1.07,5.24-.77,9.98-3.14,14.95-4.75,.23-.08,.49-.18,.66-.34,4.51-4.57,10.8-4.93,16.41-6.88,2.42-.84,5.06-1.09,7.5-1.8,2.21-.65,4.33-2.15,5.74-4.14,1.19-1.68,2.13-3.55,3.08-5.39,1.26-2.44,1.72-5.25,4.72-6.69,1.23-.59,1.91-2.64,2.51-4.16,1.12-2.85,2.65-5.33,5.15-7.15,1.93-1.41,3.04-3.78,3.74-5.6,1.79-4.63,5.8-6.97,8.74-10.38,2.2-2.55,4.95-4.53,6.91-7.4,1.87-2.73,5.2-3.97,7.96-5.77,.54-.35,1.46-.37,1.76-.83,2.55-3.93,6.97-4.89,10.74-6.86,1.57-.82,3.16-1.55,3.7-3.44,.12-.44,.41-.72,.85-.83,3.28-.78,5.9-3.16,9.12-3.92,3.87-.91,6.43-3.95,9.93-5.47,4.32-1.87,8.74-3.19,13.4-3.6,1.85-.16,3.71-.34,5.32-1.18,4.04-2.13,8.57-2.5,12.83-3.85,9.29-2.96,18.94-1.77,28.42-2.58Zm78.02,153.01c-4.66-.31-9.28-.67-13.23,1.27-3.78,1.86-7.9,3.08-11.4,5.49-2.56,1.76-6,1.81-8.05,4.68-1.15,1.61-1.27,3.62-2.62,5.05-5.17,5.44-9.34,11.4-10.56,19.07-.41,2.61-1.37,5.13-2.16,7.67-.49,1.59-2.23,2.41-2.52,4.22-.93,5.87-1.02,11.76-.4,17.66,.23,2.22,.07,4.79,1.15,6.55,2.11,3.43,2.87,7.16,4.04,10.88,1.44,4.57,2.14,9.16,2.56,13.9,.4,4.61,.84,9.25,2.77,13.61,2.9,6.55,5.48,13.22,6.25,20.44,.19,1.8,1.38,3.14,2.35,4.6,2.08,3.15,4.96,5.7,6.78,9.05,.63,1.16,.84,2.52,1.85,3.51,3.46,3.42,7.86,5.88,10.5,10.16,.18,.3,.72,.37,1.08,.57,3.93,2.16,7.99,4.05,12.12,5.8,.78,.33,1.67,.59,1.95,1.44,.79,2.41,2.83,3.28,4.93,3.76,3.88,.88,7.78,1.78,11.83,1.4,3.55-.34,7.15-.4,10.67-.93,2.17-.33,4.64-.65,6.17-2.42,3.5-4.05,8.28-5.61,13.07-7.24,.95-.32,2.13-.41,2.5-1.43,.75-2.08,2.58-3.42,3.47-5.42,.73-1.63,1.67-3.15,3.61-3.88,1.22-.46,1.86-1.81,2.34-3.1,1.4-3.69,2.49-7.5,3.95-11.15,1.89-4.76,4.52-9.32,4.38-14.58-.12-4.49-.12-8.98-.13-13.48-.01-5.86-.47-11.49-2.61-17.17-2.32-6.15-3.24-12.82-4.83-19.25-.91-3.69-.73-7.74-3.05-10.96-1.8-2.49-2.51-5.22-2.82-8.13-.4-3.77-1.76-7.22-3.16-10.7-.71-1.77-1.01-3.71-2.62-4.98-1.23-.97-1.81-2.28-2.35-3.72-1.45-3.8-3.14-7.47-6.87-9.68-.4-.24-.63-.75-.94-1.14-3.93-4.79-7.63-9.7-12.8-13.41-4.24-3.05-9.59-3.75-13.57-7.14-.16-.14-.48-.12-.72-.14-4.38-.38-8.72-1.28-12.9-.71Zm-165.74,43.77c-3.7,0-7.26,.97-10.87,1.41-5.23,.63-9.2,3.7-13.32,6.28-2.26,1.41-4.7,2.76-6.71,4.89-1.88,2-3.62,4.22-5.68,6.12-1.64,1.52-3.56,3.15-4.63,5.01-2.38,4.13-4.71,8.39-4.82,13.47-.06,2.88,0,6.26-1.42,8.51-2.52,3.96-1.85,8.03-1.08,11.74,1.05,5.05,1.69,10.16,2.35,15.22,1.31,9.97,2.64,19.83,6.55,29.2,1.67,4.01,1.62,8.46,2.68,12.63,1,3.92,.81,8,2.29,11.9,.85,2.26,2.63,3.55,3.64,5.52,3.19,6.22,6.04,12.6,10.87,17.91,2.79,3.07,4.85,6.76,9.13,8.12,.44,.14,.86,.56,1.13,.95,3.26,4.85,8.32,6.32,13.65,7.2,3.2,.53,6.32,1.26,9.45,2.13,4.62,1.29,9.28,1.78,14.18,.57,3.7-.91,7.1-2.62,10.92-3.2,5.41-.83,10.24-3.04,13.35-7.96,.98-1.55,2.39-2.69,3.71-3.96,2.01-1.93,3.73-4.24,5.21-6.61,2.48-3.96,3.53-8.75,7.12-12.12,.88-.82,1.24-2.18,1.24-3.46,0-2.35,.72-4.62,.82-6.93,.15-3.31,1.02-6.62,.54-9.93-1.04-7.25-1.34-14.55-1.87-21.84-.17-2.38,.18-5.14-1.42-6.96-1.82-2.07-2.09-4.41-2.54-6.82-.14-.73-.17-1.5-.43-2.19-1.6-4.21-2.79-8.52-3.17-13.02-.33-3.92-.95-7.71-3.34-11.04-.7-.97-1.12-2.28-1.29-3.49-.36-2.51-1.3-4.81-2.22-7.13-.67-1.69-1.34-3.39-1.95-5.11-1.19-3.39-3.17-6.34-5.52-8.97-1.14-1.28-2.12-2.52-2.55-4.17-.71-2.77-2.62-4.72-4.96-5.97-1.57-.84-2.46-1.86-2.98-3.4-.77-2.27-2.29-4.23-4.43-4.78-2.69-.69-4.62-2.27-6.83-3.69-7.54-4.86-16.17-5.54-24.8-6.04Z"/>
      <path d="M1427.98,473.47c0,5.59,.07,9.92-.02,14.24-.06,2.93-3.31,6.95-6.14,7.36-4.17,.61-8.32,1.88-12.6,.7-1.92-.53-3.89-.88-5.62-1.94-3.52-2.16-5.25-5.41-4.86-9.44,.59-6.11-.28-12.11-.79-18.15-.31-3.63-.66-7.25-1-10.87-.08-.82,.03-1.94-1-2.02-1.29-.11-.82,1.14-.99,1.86-.13,.56-.07,1.26-.39,1.68-2.75,3.68-2.36,8.14-3.09,12.3-.43,2.42-1.01,4.62-2.6,6.61-2.39,2.98-4.54,6.14-7.34,8.78-.73,.69-1.38,1.5-2.31,1.86-3.89,1.51-6.63,4.55-9.76,7.11-1.87,1.53-4.35,1.54-6.64,1.89-8.12,1.26-16.26,1.01-24.39,.13-2.99-.32-5.71-1.39-8.33-3.09-4-2.59-7.86-5.39-12.09-7.65-2.87-1.54-5.22-3.83-7.06-6.57-.47-.7-1.02-1.44-2-1.18-1.06,.28-1.68,1.09-1.84,2.15-.25,1.66-.09,3.32,.11,4.97,.7,5.67-2.92,10.67-8.56,11.16-8.2,.71-16.52,1.39-24.54-1.04-3.3-1-6.79-2.03-8.77-5.86-1.02-1.98-2.95-4.02-5.06-5.38-1.5-.97-2.13-2.19-2.29-3.88-.53-5.29-.8-10.6-1.06-15.91-.3-6.07-.58-12.11,.03-18.18,.24-2.38-1.12-4.11-2.68-5.67-.67-.67-1.52-1.08-2.5-.62-.94,.44-1.93,.52-2.93,.49-1.46-.04-2.33,.69-2.78,2.04-.1,.32-.22,.63-.36,.93-1.83,4.02-4.65,6.97-9.25,7.34-7.25,.57-14.48,.56-21.25-2.82-1.33-.67-2.31-1.44-2.76-2.97-.67-2.28-2.94-3.52-4.69-4.1-4.81-1.6-9.64-1.25-14.52,.9-4.65,2.05-6.11,6.1-6.98,10.13-.99,4.55,.17,9.46,3.14,12.98,4.03,4.78,8.66,9.24,16.03,8.13,3.13-.47,5.11-1.29,6-4.31,1.08-3.65,3.66-5.15,7.08-5.77,2.39-.43,4.55-1.39,6.78-2.37,2.95-1.31,6.56-1.85,9.43-.71,3.61,1.43,7.81,2.4,9.5,7.13,1.57,4.39,1.89,4.57-1.31,8.24-1.89,2.17-3.54,4.58-5.14,6.99-1.35,2.04-3.34,3.5-5.07,5.03-3.75,3.32-7.92,6.27-12.45,8.5-2.93,1.44-6.34,1.25-9.54,1.55-7.8,.74-15.6,.54-23.35-.83-2-.36-3.85-.87-5.3-2.48-.52-.58-1.39-.9-2.17-1.16-1.92-.66-3.5-1.55-4.82-3.29-1.2-1.59-3.25-2.46-4.89-3.72-4.16-3.18-6.6-7.29-7.64-12.3-.27-1.33-.7-2.57-1.27-3.77-.28-.59-.7-1.15-1.17-1.6-1.63-1.59-3.07-1.29-3.68,.93-.97,3.54-1.28,7.21-1.2,10.86,.05,2.31,.46,4.6,.39,6.95-.15,4.94-3.23,8.59-8.21,9.54-5.74,1.1-11.45,.33-17.16-.23-3.25-.32-6.46-.28-9.71,.02-9.27,.86-18.52,2-27.84,.26-2.95-.55-5.34-1.86-7.4-3.81-3.07-2.89-5.57-6.3-8.61-9.26-5.13-5-4.61-11.65-3.75-18.08,.67-5,4.21-8.38,7.5-11.79,1.63-1.69,1.53-3.19,.89-5.39-.99-3.35-2.4-6.5-3.68-9.71-.34-.85-.64-1.71-1.07-2.51-.74-1.37-1.72-1.41-2.35,0-.74,1.65-1.99,1.99-3.59,2.14-3.33,.31-6.58,1.08-9.63,2.45-3.41,1.54-4.19,3.37-2.62,6.77,1.53,3.34,1.04,6.71,.55,10.05-1.42,9.81-2.17,19.66-1.87,29.57,.16,5.3-4.42,9.57-9.4,9.6-2.98,.02-5.92,.6-8.95,.06-5.69-1.02-10.17-6.75-9.85-12.59,.2-3.46-.59-6.89-1.21-10.26-1.25-6.79-.92-13.75-2.36-20.53-.39-1.85,.19-3.98,.58-5.92,.82-3.99-1.84-6.41-4.84-7.67-1.79-.75-3.34-1.69-4.3-3.21-3.41-5.39-4.26-11.27-1.59-17.1,.99-2.15,3.33-3.87,5.55-5.12,4.03-2.27,6.34-6.11,9.04-9.58,.47-.6,.39-1.8,.26-2.67-.52-3.46,.59-6.55,2.02-9.57,.89-1.88,1.9-3.72,2.3-5.78,1.07-5.59,5.66-7.86,9.98-9.95,4.36-2.12,8.99-3.88,13.95-4.36,2.99-.29,5.99-.23,8.98-.1,6.63,.29,12.18,7.6,11.47,13.27-.41,3.31-1.39,6.46-4.19,9.18-2.17,2.11-4.83,3.31-6.97,5.32-1.38,1.29-3.23,1.47-5.15,1.36-4.36-.23-7.52,3.82-5.35,7.03,1.37,2.03,3.27,4.07,6,4.52,5.61,.93,9.59,4.19,12.81,8.6,.2,.27,.39,.54,.6,.8,.94,1.15,.49,3.61,2.61,3.54,3.13-.11,6.48-.19,8.69-2.95,2.52-3.14,5.65-5.08,9.63-5.66,.49-.07,1.1-.06,1.45-.34,3.87-3.16,8.71-3.26,13.2-3.54,6.13-.37,12.51-.82,18.15,2.72,.71,.45,1.4,.9,2.27,.96,4.88,.32,7.86,3.78,11.37,6.57,4.27,3.4,4.49,8.68,6.91,12.91,.45,.79,.61,1.8,1.35,2.35,2.38,1.78,4.25,3.78,4.91,6.86,.29,1.37,1.61,.6,2.22,.08,1.39-1.19,2.77-2.7,2.94-4.47,.67-6.92,4.05-11.79,10.3-14.72,1.17-.55,1.99-1.45,2.72-2.49,1.69-2.42,4.59-3.16,6.9-4.7,5.07-3.38,11.02-4.67,16.96-5.18,6.08-.53,12.1,.49,17.95,2.49,3.47,1.18,6.77,2.64,10.02,4.3,1.33,.68,2.42,1.44,2.95,2.85,.49,1.31,1.41,2.2,2.58,2.94,3.85,2.44,6.81,1.6,8.16-2.79,1.79-5.79,6.26-8.22,11.42-9.97,3.24-1.1,4.77-3.8,5.81-6.65,.75-2.06,.87-4.4,.98-6.63,.16-3.41,1.62-6.14,4.21-8.14,2.26-1.74,4.17-3.88,7.12-4.84,2.91-.95,5.36-.13,7.62,1.07,5.19,2.76,8.67,6.82,8.68,13.17,0,3.38,1.19,6.56,2.63,9.56,1.12,2.34,3.31,3.12,5.85,2.95,6.54-.45,11.67,4.52,11.5,11.13-.07,2.76-.33,5.48-1.48,8.05-.3,.66-.47,1.45-.44,2.18,.08,1.95,1.49,2.66,2.98,1.4,1.73-1.46,3.51-2.82,4.4-5.18,.91-2.41,3.08-4.23,5.11-5.63,3.41-2.35,6.67-4.91,10.13-7.19,2.24-1.48,4.92-1.94,7.38-2.95,9.62-3.95,19.51-3.58,29.28-.89,3.8,1.05,7.41,2.9,10.86,5.25,3.8,2.59,7.13,5.72,10.73,8.49,3.69,2.85,5.91,7.31,6.46,12.25,.24,2.15,.72,4.28,.78,6.43,.06,2.02,1.5,2.89,2.75,3.87,1.09,.86,1.62-.26,1.54-1.06-.28-3.09,.07-6.17,.55-9.16,.9-5.56-.4-11.1,.3-16.62,.45-3.59,1.93-6.54,5.66-7.78,2.08-.69,3.35-2.7,5.56-3.25,4.45-1.1,8.56,.16,12.61,1.67,5.19,1.93,10.31,3.37,15.52,.01,1.33-.86,3.03-1.25,4.58-.9,7.24,1.67,14.33-.4,21.49-.77,3.38-.17,6.42,.38,9.64,1.63,5.99,2.33,9.04,6.24,10.1,12.6,.65,3.89,2.49,7.67,5.88,10.42,1.92,1.56,2.18,4.24,2.95,6.5,.91,2.67,1.55,5.43,2.4,8.11,.78,2.45,1.78,2.67,3.73,.9,1.61-1.46,3.08-3.02,3.72-5.18,.39-1.31,1.09-2.34,2.17-3.25,1.56-1.32,1.77-3.35,2.09-5.22,1.33-7.71,4.73-14.38,9.6-20.47,4.49-5.62,10.31-6.79,16.91-5.76,2.96,.46,6.65,5.22,6.93,8.55,.46,5.41-.4,10.61-2.54,15.6-1.29,3-2.22,6.05-4.24,8.86-2.21,3.07-2.1,7.3-2.14,11.12-.04,3.27-1.14,6.22-2.3,9.11-.48,1.2-1.2,2.93-3.42,2.67-1.15-.14-1.13,1.42-1.56,2.27-2.74,5.37-2.79,11.33-3.76,17.09-.41,2.41-.98,4.36-3.4,5.9-3.11,1.98-3.91,5.72-4.53,9.16-.87,4.86-1.95,9.34-5.38,13.38-2.82,3.32-5.11,7.28-7.33,11.14-1.66,2.87-4.43,3.98-7.25,4.89-4.33,1.41-8.69,3.1-13.17,3.62-6.07,.71-12.18,1.39-17.76-3.19-2.36-1.94-4.48-3.94-6.48-6.17-.37-.41-.43-.86-.37-1.38,.38-3.48,2.11-6.72,3.94-9.28,2.22-3.11,5.87-5.48,10.25-5.5,1.83,0,3.67-.06,5.49,.13,4.61,.49,7.38-2.61,6.89-7.25-.5-4.69-2.91-8.31-5.35-12.09-1.62-2.5-2.27-5.55-2.46-8.52-.15-2.41-.83-4.59-1.86-6.66-.9-1.82-1.59-3.65-1.88-5.64-.3-2-1.28-3.73-2-5.58-2.16-5.56-4.63-10.99-6.46-16.69-1.57-4.87-4.79-8.61-9.78-10.5-.15-.06-.32-.11-.49-.1-3.83,.06-7.62,.57-11.2,1.91-1.78,.67-2.99,2.13-3.72,4.12-.79,2.16-2.89,3.53-4.22,5.43-1.51,2.15-2.15,4.46-2.46,6.93-.76,6.13-.43,12.3-.5,17.18Zm-77.41-33.63c-3.31-.66-6.35,1.03-9.46,2.37-1.18,.51-2.52,.75-3.19,2.17-2.87,6.1-4.51,12.2-1.69,18.9,.86,2.06,2.6,2.92,3.78,4.45,3.69,4.8,12.49,6.43,17.5,2.97,3.33-2.3,4.81-6.46,8.23-8.75,.12-.08,.17-.29,.21-.44,.92-3.4,1.57-6.87,.67-10.33-.59-2.27-1.14-4.82-4.25-5.18-.33-.04-.7-.48-.88-.82-2.3-4.27-6-5.73-10.91-5.34Zm-62.02,18.73c0,2.25,.03,5.82-.02,9.39-.02,1.23,.57,1.95,1.47,2.69,3.69,3.06,8.13,2.31,12.38,2.52,.7,.03,1.28-.43,1.54-1.1,.79-2.03,1.57-4.06,.17-6.18-.55-.83-.97-1.77-1.02-2.79-.29-6.74-.25-13.47,1.64-20.03,1-3.47-.88-5.91-4.46-5.91-2.62,0-5.12,.64-7.62,1.24-2.57,.62-4.83,3.53-4.53,5.88,.54,4.32,.28,8.64,.44,14.29Zm-177.47,14.29c3.4,.48,6.39-.49,9.11-2.51,.47-.35,1.07-.56,1.01-1.27-.05-.66-.53-.97-1.1-1.21-4.64-1.95-9.36-1.75-14.09-.41-1.03,.29-2.54,.5-2.25,2.13,.28,1.53,1.1,2.84,2.85,3.04,1.48,.17,2.98,.16,4.47,.23Zm2.03-29.55c.93,0,1.26,0,1.6,0,1.65-.04,2.89-1.05,2.97-2.47,.1-1.69-1.67-1.76-2.94-1.95-1.07-.16-2.16-.01-3.18,.38-.8,.3-1.61,.64-1.54,1.69,.07,.98,.53,1.79,1.49,2.1,.7,.22,1.46,.24,1.6,.26Z"/>
      <path d="M1118.18,300.41c-6.71,.1-14.03,.03-21.31-2.13-5.99-1.78-5.93-3.85-5.94-7.77,0-3.58-.86-7.01-.97-10.56-.17-5.03-.89-10.06-.86-15.14,.05-10.23-.92-20.45-.52-30.68,.19-4.9,.62-9.78,.89-14.67,.18-3.14-.04-6.32-.17-9.42-.39-9.14-.05-18.28-.3-27.41-.26-9.39,.26-18.76-.14-28.16-.25-5.79,.29-11.62,.62-17.42,.15-2.64,1.76-4.48,4.1-5.56,3.65-1.69,7.49-2.84,11.53-2.86,8.66-.03,17.31,.14,25.88,1.52,.49,.08,.98,.21,1.47,.29,3.94,.65,6.78,2.36,7.35,6.8,.22,1.75,.7,3.59,1.87,5.11,1.09,1.42,2.14,1.62,3.07-.03,.93-1.64,2.37-1.98,4.09-2.37,5.49-1.25,10.85-2.71,15.01-7.12,2.06-2.19,5.57-1.95,8.46-2.59,5.05-1.12,10.27-1,15.38-.98,4.22,.02,8.25,1.92,11.69,4.45,1.74,1.29,2.16,3.67,2.77,5.75,.05,.15-.05,.36,.02,.49,2.11,4.15,.82,8.52,.89,12.81,.06,3.36,.37,6.72,.47,10.09,.06,1.85,1.35,3.01,2.27,4.34,.76,1.1,1.48,.29,1.91-.45,1.49-2.58,2.97-5.17,4.33-7.81,.47-.92,.92-1.98,1.83-2.27,3.45-1.13,4.39-4.29,5.91-6.98,.85-1.5,1.89-2.55,3.61-3.19,2.23-.84,4.34-2.08,5.96-3.91,1.05-1.18,2.22-1.81,3.79-2.12,5.49-1.09,10.9-2.72,15.58-5.77,2.4-1.57,4.64-3.16,7.49-3.48,2.31-.26,4.64-.32,6.96-.48,6.96-.46,13.89-1.5,20.91-1.16,7.81,.37,15.6,.82,23.33,2.1,3.37,.56,5.76,2.8,8.36,4.66,2.44,1.75,5.11,2.8,8,3.25,4.34,.68,7.92,2.41,10.19,6.35,.85,1.48,2.49,1.91,3.89,2.57,1.58,.74,2.65,1.74,3.46,3.36,1.73,3.46,4.32,6.28,7.02,9.09,2.18,2.27,3.97,5.13,4.56,8.45,.81,4.57,1.26,9.19,2.69,13.65,.86,2.66,2.11,5.13,2.62,7.98,1.25,7.03,.75,14.03,.56,21.07-.21,7.91-1.65,15.89,.93,23.69,.42,1.26-.19,2.46-.19,3.71,.03,6.48-.29,12.98,.87,19.42,.13,.73,.27,1.58,.02,2.23-1.12,2.88-.36,5.68,0,8.55,.93,7.33,.76,14.74,1.05,22.11,.11,2.65-1.04,4.4-3.63,5.62-5.39,2.53-10.89,3.86-16.88,3.57-7.23-.35-14.49,.47-21.7-.54-3.41-.48-6.11-2.02-7.45-5.4-1.6-4.04-3.42-4.88-7.75-3.82-1.82,.45-3.8-.1-5.58,.98-1.28,.78-2.51,1.49-3.54,2.67-2.59,2.98-6.31,4.29-9.92,4.82-9.71,1.44-19.52,1.58-29.34,.93-6.14-.41-12.34-.24-18.4-1.24-3.12-.52-6.36-1.45-8.16-4.75-.86-1.57-2.87-1.93-4.43-2.62-2.96-1.3-6.02-2.37-9.07-3.45-.82-.29-1.54-.59-1.95-1.39-1.52-2.91-3.72-5.37-5.98-7.63-2.35-2.34-3.87-5.15-5.68-7.8-1.49-2.19-1.4-4.95-1.59-7.49-.66-8.47-.45-16.96-.12-25.44,.17-4.42,2.08-8.19,4.56-11.84,2.55-3.75,5.71-7.03,7.88-11.1,1.26-2.37,4.53-2.91,6.49-4.87,.93-.93,1.98-1.68,2.67-2.89,1.06-1.86,3.09-2.63,4.97-2.95,4.6-.78,8.98-2.3,13.44-3.55,1.6-.45,2.69-1.73,4.21-2.43,4.5-2.07,9.28-2.16,13.99-2.89,7.07-1.1,14.24-1.23,21.34-1.95,5.95-.6,11.91-1.16,17.9-1.03,3.66,.08,6.34-1.59,8.66-4.15,.31-.34,.56-.88,.27-1.11-1.79-1.38-1.43-3.4-1.98-5.2-.51-1.68-2.02-3.51-3.83-4.43-2.4-1.23-4.75-2.22-6.57-4.53-1.23-1.56-3.79-1.89-6.03-1.81-4.64,.17-9.27,.43-13.91,.43-3.36,0-6.59,.91-9.92,1.09-1.24,.07-2.25,.7-2.89,1.74-1.52,2.46-3.59,4.33-6.05,5.8-.21,.13-.48,.24-.6,.44-2.6,4.09-6.83,4.97-11.1,6.34-3.22,1.03-6.37,2.4-9.73,2.74-7.8,.81-15.63,.9-23.31-1.08-5.77-1.49-9.14-6.44-8.61-12.28,.17-1.92-.4-3.62-1.73-5.01-.94-.99-2.02-1.35-3.35-.53-7.5,4.64-15.93,6-24.46,7.43-4.69,.78-9.69,1.76-13.18,6.08-1.69,2.09-3.83,4.17-6.58,5.21-.9,.34-1.38,1.19-1.83,1.98-1.63,2.83-3.01,5.78-3.44,9.03-.47,3.51-1.89,6.61-3.31,9.82-1.92,4.33-2.63,9.1-2.62,13.87,.01,7.64-.6,15.27-.1,22.92,.3,4.57-.41,9.12-.81,13.68-.16,1.82-.29,3.68-.08,5.48,.39,3.33,.28,6.6,.01,9.93-.34,4.22-.01,8.47,.3,12.71,.07,.9,.02,1.84-.2,2.71-1.29,5.11-4.62,7.66-10.33,7.82-3.83,.11-7.66,.02-12.2,.02Zm165.68-65.94c-6.34,.31-12.14,.79-17.92,1.47-1.53,.18-2.93,.46-4.25,1.25-1.48,.89-2.9,2.11-4.52,2.52-3.43,.87-4.89,3.78-6.87,6.1-.75,.87-.69,2.65,.11,3.57,1.71,1.95,3.48,4.2,5.72,5.22,1.92,.87,4.15,1.69,6.39,1.91,7.49,.75,14.93-.34,22.37-.84,2.59-.17,5.64-.05,6.96-3.29,.12-.3,.67-.49,1.06-.6,6.56-1.69,9.36-7.88,14.07-11.78,.86-.71,1.14-2.03,.55-3.25-.51-1.07-1.5-1.12-2.52-1.27-7.19-1.06-14.49,.07-21.15-1.02Z"/>
      <path d="M761.94,60.96c5.32,.57,9.95-.23,14.59-.48,4.42-.24,8.78,.49,13.17,.33,8.1-.29,15.72,2.28,23.47,4.07,1.79,.41,3.63,.38,5.45,.6,3.73,.45,6.4,2.96,9.61,4.39,2.96,1.32,5.92,2.64,8.89,3.93,1.91,.83,3.64,1.67,4.76,3.72,.79,1.46,2.25,2.9,3.76,3.54,2.76,1.15,4.3,3.26,5.52,5.67,1.77,3.48,5.77,4.74,7.69,8,3.45,5.85,6.92,11.68,10.29,17.58,.82,1.44,1.2,3.09,1.49,4.75,.43,2.46,1.27,4.8,2.1,7.16,1.45,4.17,1.12,8.13-.77,12.4-2.37,5.34-6.81,5.06-11.04,5.27-8.37,.4-16.76,.12-25.15,.47-5.5,.23-10.72-1.41-14-6.5-.96-1.49-1.34-3.31-1.45-4.99-.25-3.88-2.17-6.53-5.31-8.5-1.52-.95-2.76-2.22-3.57-3.77-1.06-2.01-2.76-3.16-4.75-3.79-2.54-.8-4.78-2.28-7.42-2.87-1.6-.36-2.9-1.39-4.13-2.62-2.19-2.17-5.35-1.97-8.12-2.64-8.18-1.98-16.34-.97-24.48,.42-2.66,.45-5.15,1.14-7.2,3.12-1.19,1.15-3,1.35-4.54,1.96-2.39,.95-4.84,1.76-7.14,2.9-3.25,1.61-3.96,5.02-4.9,8.06-1.17,3.79-.56,7.77-.51,11.67,0,.61,.41,1.24,.7,1.83,1.02,2.07,2.79,3.73,3.25,6.12,.08,.43,.48,.98,.88,1.15,3.57,1.51,6.77,3.81,10.85,4.2,4.93,.46,9.63,1.76,14.39,3.4,6.75,2.33,13.59,4.87,20.96,5.09,3.9,.12,7.8,.61,11.67,1.13,2.01,.27,3.97-.12,5.97-.04,3.77,.15,6.98,2.07,10.56,2.77,1.13,.22,2.23,.59,3.4,.64,.65,.03,1.52-.02,1.92,.36,4.65,4.41,11.22,4.06,16.55,6.77,.59,.3,1.54,.25,1.84,.68,2.43,3.63,6.61,4.45,10.05,6.45,.21,.13,.39,.35,.62,.41,5.79,1.48,7.6,6.96,10.68,11.02,1.32,1.74,2.67,3.69,4.13,5.13,3.49,3.45,3.47,8.17,5.47,12.06,2.3,4.47,2.51,9.2,3.06,13.96,.14,1.18,.67,2.39,1.29,3.44,.94,1.58,1.18,3.26,1.18,5.03,.02,5.67,.42,11.13-2,16.8-2.04,4.77-3.66,9.92-5.14,15-.5,1.72-1.35,3.23-2.6,4.49-1.18,1.18-1.95,2.53-2.75,4.01-1.13,2.1-3.06,3.81-4.79,5.54-.82,.82-1.59,1.75-2.48,2.42-3.47,2.6-5.82,6.6-10.56,7.7-2.21,.51-4.28,2.29-5.62,4.31-1.08,1.63-2.48,2.37-4.25,2.73-6.23,1.26-12.15,3.2-17.54,6.75-3.62,2.38-8.07,2.5-12.22,3.21-7.55,1.29-15.2,1.51-22.87,1.67-10.97,.23-21.93-.06-32.87-.66-4.88-.27-9.65-1.66-14.36-3.04-.47-.14-1.05-.36-1.28-.73-2.8-4.52-8.1-4.07-12.13-6.12-1.67-.85-3.65-1.1-5.47-1.67-.46-.14-1.06-.37-1.26-.73-2.28-4.25-6.9-4.95-10.61-6.97-2.89-1.57-6.01-2.48-7.06-6.3-.6-2.17-3.01-3.42-4.82-4.53-4.13-2.53-5.76-6.46-7.23-10.64-.22-.62-.39-1.3-.76-1.82-4.79-6.77-6.52-14.45-6.8-22.57-.1-2.73-.74-5.41-.28-8.2,.93-5.61,5.97-9.54,11.39-9.99,6.57-.54,13.17-.81,19.71-1.56,3.48-.4,6.01,1.68,8.99,2.53,2.42,.69,4.84,1.17,7.11,2.74,3.23,2.24,4.24,5.92,6.77,8.45,3.6,3.57,4.65,9.2,9.05,11.82,3.37,2.01,5.4,5.78,8.94,6.98,3.61,1.22,7.25,2.75,11.24,2.86,7.64,.21,15.15,2.16,22.85,1.63,9.84-.68,19.61-1.68,28.24-7.03,3.49-2.17,5.92-5.24,6.44-9.57,.61-5.02-.36-9.96-.95-14.88-.33-2.74-2.24-5.07-5.58-5.63-2.84-.47-5.18-2.11-7.7-3.53-4.69-2.64-9.87-4.64-15.5-4.88-4.15-.17-8.33-.43-12.41-1.15-3.72-.66-7.18-2.5-11.04-2.81-8.08-.66-15.51-4.31-23.51-5.23-6.01-.69-11.7-2.77-17.02-5.18-3.45-1.56-7.09-3.4-10.51-5.18-5.25-2.73-8.77-7.91-14.62-9.5-1.06-.29-1.32-1.37-1.85-2.22-1.61-2.6-2.49-5.9-6.19-6.61-.73-.14-1.16-.91-1.42-1.65-1.96-5.5-4.62-10.64-7.91-15.45-.19-.27-.42-.56-.47-.87-.81-5.03-2.96-9.75-3.26-14.92-.47-8.14,.26-16.05,3.69-23.56,.27-.58,.69-1.17,1.19-1.56,1.38-1.09,2.36-2.5,2.56-4.17,.48-4,3.33-6.83,4.97-10.24,.93-1.94,3.57-2.8,5.04-4.65,.77-.97,1.97-1.74,2.21-2.96,.67-3.48,3.6-4.76,6.03-6.51,2.74-1.97,5.43-3.96,7.67-6.53,2.13-2.45,5.16-3.62,7.92-5.1,1.97-1.05,4.01-1.92,5.85-3.27,3.13-2.31,7.09-2.31,10.68-3.24,6.92-1.8,13.94-3.23,21.14-3.34,.99-.02,1.98-.08,2.34-.1Z"/>
      <path d="M887.19,468.8c-.67-6.53,.09-13.1-.49-19.64-.12-1.38,.31-2.8,.38-4.21,.28-5.22-2.36-7.52-7.16-8.02-5.14-.54-10.3,.44-15.38,1.23-3.94,.61-6.31,4.5-5.21,8.74,.66,2.54,.54,4.96,.22,7.38-.98,7.6-.37,15.25-.88,22.85-.2,2.99,.64,5.94,.47,8.96-.26,4.79-2.47,7.34-7.09,8.7-5.27,1.55-10.51,1.41-15.77,.33-3.4-.7-6.54-4.67-6.63-8.1-.24-9.89-.84-19.79-.51-29.69,.15-4.57-.9-9.09-.29-13.7,.27-2.03-.89-3.89-2.96-4.79-1.29-.56-2.63-1.08-3.99-1.42-1.13-.28-2.02-.65-2.42-1.85-.23-.69-.44-1.54-1.4-1.53-.92,.01-1.08,.89-1.5,1.49-2.49,3.5-2.19,7.64-2.33,11.55-.16,4.6-.74,9.12-1.72,13.58-.55,2.46-3.02,3.65-4.66,5.31-1.56,1.58-3.12,3.04-3.64,5.21-.65,2.66-2.57,3.65-4.89,4.4-4.2,1.36-7.98,3.62-11.85,5.7-1.6,.86-3.32,1.89-5.05,2.04-6.25,.55-12.47,1.65-18.79-.18-3.75-1.09-7.9-.96-11.65-.14-7.12,1.54-14.24,1.16-21.39,1.28-.83,.01-1.66,.05-2.49,.15-.52,.07-.94,.41-1,.97-.05,.49,.35,.68,.73,.88,.43,.23,1.07,.44,1.2,.81,1.46,4,4.92,3.27,7.99,3.44,11.22,.62,22.47-.22,33.69,.58,4.8,.34,9.63,.13,14.33,1.59,6.05,1.89,10.21,7.5,10.04,13.91-.07,2.78-3.11,6.65-6.26,7.77-3.15,1.12-6.39,1.82-9.77,1.86-9.05,.12-18.11,.77-27.13,.36-9.11-.41-18.29,.11-27.35-1.75-6.07-1.25-11.71-3.08-15.94-7.9-1.27-1.45-2.93-2.27-4.74-2.58-2.28-.38-3.86-1.57-5.46-3.17-1.74-1.73-3.42-3.54-5.44-5.05-2.32-1.74-3.42-4.61-4.73-7.18-.42-.83-.74-1.66-1.56-2.18-4.64-2.93-6.91-7.34-7.35-12.62-.36-4.33-2.56-7.92-4.32-11.61-1.17-2.45-1.94-4.72-2.27-7.43-.58-4.78-.4-9.49,.9-14.01,1.29-4.49,1.71-9.3,4.66-13.3,1.81-2.45,1.35-5.76,2.31-8.59,1.05-3.09,2.43-6.22,4.34-8.59,1.62-2.02,3.84-3.74,5.33-6.04,.22-.35,.66-.62,.74-.99,.91-4.06,4.62-5.41,7.39-7.64,.72-.58,1.44-1.12,1.88-1.95,.35-.67,.74-1.35,1.5-1.6,4.66-1.56,7.66-5.45,11.55-8.06,2.17-1.45,4.5-3.04,7.2-3.62,5.44-1.17,10.94-2.12,16.33-3.49,2.73-.69,5.35-1.45,8.23-1.49,3.71-.05,7.32,.37,10.81,1.39,3.78,1.1,7.63,1.84,11.5,2.21,4.02,.38,7.48,2.02,11.08,3.51,2.23,.93,4.18,1.96,5.94,3.8,1.76,1.85,4.55,2.53,6.57,4.35,1.16,1.04,2.44,1.92,3.41,3.2,1.95,2.61,4.24,4.91,6.9,6.79,1.21,.86,2.08,1.9,2.4,3.36,.69,3.17,3.49,5.01,4.94,7.71,.19,.35,.83,.64,1.27,.66,1.81,.06,2.83,1.11,3.74,2.52,1.03,1.59,2.93,2.11,4.08,.88,2.14-2.29,4.8-3.69,7.28-5.43,3.38-2.37,4.38-5.87,4.58-9.76,.21-4.22,1.5-8.38,3.61-11.76,3.3-5.28,6.79-10.9,12.52-13.89,5.77-3.01,12.11-4.21,18.78-3.29,3.77,.52,6.86,2.62,9.75,4.43,2.3,1.43,4.4,4.59,4.34,8.17-.06,3.29-.54,6.18-3.63,8.23-4.12,2.73-7.65,6.32-12.42,8.09-.98,.36-1.85,1.14-2.62,1.88-1.41,1.33-1.23,2.59,.07,4.09,5.36,6.24,12.71,6.13,19.92,6.3,3.81,.09,4.91-3.25,6.06-5.97,1.7-4.01,3.03-8.17,4.47-12.29,.46-1.32,1.05-2.43,2.5-2.88,.65-.2,1.16-.64,1.51-1.24,1.59-2.71,4.26-3.47,7.06-3.43,4.77,.07,9.12,1.62,12.53,5.06,2.03,2.04,2.21,4.9,1.78,7.51-.81,4.91,1.02,8.64,4.97,11.05,1.99,1.21,4.64,1.58,7.13,1.8,1.49,.13,3.07,.13,4.42,.67,3.56,1.44,6.22-.11,8.89-2.15,1.7-1.3,3.21-2.81,5.24-3.73,2.45-1.11,2.23-3.56,1.99-5.68-.26-2.24-.5-4.47-.37-6.72,.29-5.07,3.18-8.71,6.79-11.91,1.96-1.74,3.93-3.61,5.49-5.58,2.64-3.32,6.21-4.43,9.8-5.23,5.21-1.15,10.58-1.02,15.89-.18,8.64,1.37,13.2,7.77,11.29,15.95-.91,3.91-4.31,6.51-8.24,7.85-1.46,.5-2.76,1.05-3.75,2.28-1.33,1.66-3.38,2.04-5.23,2.73-.7,.26-1.47,.39-2.1,.77-2.91,1.74-3.04,4.18-.17,5.7,3.21,1.69,6.42,3.35,9.58,5.13,4.6,2.58,7.95,10.87,6.1,15.83-1,2.68-3.07,4.72-4.12,7.35-.18,.44-.88,.72-1.4,.96-1.36,.62-2.73,1.24-4.13,1.76-5.87,2.15-6.52,2.99-5.89,9.04,.38,3.61,.31,7.19,.31,10.8,.01,6.98-.88,13.9-.77,20.86,.04,2.24-.19,4.48-.34,6.72-.23,3.47-2.68,5.45-5.23,7.15-2.43,1.62-5.19,2.62-8.23,2.52-1.66-.06-3.34-.11-5,0-7.07,.47-11.39-5.07-11.08-11.45,.14-2.9,.48-5.79,.07-8.68-.42-3.04,.22-6.05,0-9.13-.47-6.18-.27-12.41-.34-18.62,0-.33,.02-.67,.02-1,.01-1.7,1.46-3.55,.14-5.05-1.63-1.86-3.78-3.16-6.1-4.16-5.3-2.27-10.7-1.93-16.13-.72-1.07,.24-2.13,.32-3.21,.39-3.78,.24-5.74,2.2-6.02,5.98-.19,2.51,.2,4.99,.54,7.45,.74,5.37,.13,10.81,.95,16.17,.37,2.4,1.97,4.51,4.34,4.78,3.44,.4,6.52,1.95,9.76,2.95,2.76,.85,4.3,3.55,4.97,6.46,.28,1.21,.51,2.44,.8,3.65,1.18,4.94-2.44,10.53-7.54,10.84-8.2,.51-16.44,1.44-24.63-.32-3.78-.81-7.52-2.46-9.61-5.36-2.19-3.03-3.93-6.54-6.31-9.48-2.93-3.62-2.08-7.68-2.19-11.67Zm-140.98-66.34c-3.16,0-6.33-.1-9.49,.03-3.77,.15-7.02,1.33-8.77,5.07-.2,.43-.58,1.03-.95,1.08-3.37,.47-5.51,3.3-8.51,4.4-2.17,.79-3.78,2.11-4.68,4.18-.75,1.73-1.21,3.53-2.55,5.04-.82,.92-.4,2.4,.15,3.55,.23,.47,.78,.78,1.27,.55,1.64-.76,3.45-1.33,3.94-3.45,.78-3.4,3.46-5.01,6.37-5.98,2.18-.72,4.2-1.52,5.89-3.05,.89-.8,1.84-1.45,3.07-1.5,2.5-.1,4.65-1.13,6.73-2.43,2.87-1.79,5.42-1.52,7.77,.83,.71,.7,1.56,.95,2.48,.99,3.32,.16,6.61,.76,9.96,.57,2.91-.17,5.83,.64,7.07-3.71,.97-3.4,1.72-3.21-1.72-4.61-.84-.34-1.77-.43-2.64-.68-5.05-1.46-10.24-.87-15.38-.88Zm-38.19,38.32c0-1.99,.09-3.99-.03-5.98-.09-1.59,.16-4.01-1.62-4.19-1.32-.13-1.61,2.36-2.19,3.8-2.24,5.52-1.74,11.3-1.4,16.99,.29,4.91-.09,10.02,2.52,14.57,.58,1,.42,2.95,2.03,2.66,1.49-.27,1.12-2.08,1.12-3.24,.01-8.2-1.39-16.39-.44-24.6Zm41.64,6.75s-.02,0-.03,0c0-1.16,0-2.32,0-3.48,0-.97-.28-1.81-1.28-2.2-1.46-.58-2.9-1.24-4.4-1.69-1.46-.44-4.59,1.85-4.28,3.25,.61,2.71-.1,5.51,.62,8.13,.52,1.89,1.12,4.02,3.45,4.68,.46,.13,5.81-4.47,5.88-4.96,.05-.41,.05-.83,.05-1.24,0-.83,0-1.66,0-2.49Zm-25.47,35.04c.96,.02,1.99-.46,2.48-1.47,.51-1.06-.51-1.74-1.22-2.17-2.18-1.33-4.3-2.81-6.9-3.26-1.02-.18-2.16-.4-2.23-1.6-.14-2.67-1.57-4.38-3.62-5.87-.83-.6-1.35-1.51-2.51-.71-1.01,.7-.98,1.59-.61,2.64,1.12,3.17,3.76,5.36,5.39,8.28,1.58,2.84,5.68,3.35,9.21,4.17Zm60.37-41.69c.07,1.02,.08,1.85,.2,2.66,.11,.72,.2,1.57,.99,1.88,.9,.35,1.26-.54,1.8-.99,2.01-1.68,1.43-3.78,.61-5.63-.39-.87-1.07-2.45-2.38-2.16-1.35,.3-.81,1.95-1.19,2.97-.16,.43-.03,.98-.03,1.28Z"/>
      <path d="M1072.54,219.72c-.27,5.98,.48,11.98-.36,17.95-.17,1.22-.54,2.21-1.6,2.94-.77,.52-1.08,1.42-1.51,2.24-2.41,4.56-3.42,9.62-5.24,14.39-1.02,2.66-3.6,3.78-4.93,6.08-.7,1.2-1.65,2.21-2.07,3.63-.52,1.78-1.52,3.59-3.12,4.4-3.8,1.9-6.07,5.29-8.78,8.26-.71,.78-1.58,1.31-2.57,1.44-3.03,.4-5.12,2.22-7.04,4.36-2.11,2.36-4.68,3.86-7.81,4.58-3.73,.86-7.28,2.36-10.81,3.83-.23,.1-.51,.14-.68,.31-5.93,5.71-13.69,6.1-21.1,6.56-9.69,.61-19.44,.38-29.16,.16-6.66-.15-13.23-1.28-19.5-3.7-.6-.23-1.32-.58-1.63-1.09-1.65-2.69-4.42-3.36-7.14-4.15-2.4-.69-4.82-1.29-7.2-2.04-2.89-.9-5.08-2.57-6.48-5.12-1-1.81-2.29-3.13-4.23-3.54-3.41-.71-4.7-3.7-6.66-5.92-1.08-1.22-2.2-2.12-3.69-2.81-2.71-1.25-4.8-3.4-5.94-6.1-1-2.37-2.21-4.47-4.14-6.12-3.14-2.7-4.76-6.12-5.04-10.21-.12-1.79-.82-3.39-1.68-4.92-.8-1.44-1.88-2.73-2.02-4.5-.04-.49-.53-1.15-.98-1.35-2.64-1.18-2.72-3.47-2.84-5.87-.22-4.81-1.08-9.65-.77-14.42,.54-8.45-.46-16.98,1.22-25.38,.27-1.36,1.04-2.26,1.92-3.32,1.88-2.25,3.25-4.91,4.33-7.67,.33-.85,.57-1.76,.67-2.66,.54-4.72,2.71-8.6,6.1-11.82,2.87-2.72,3.46-7.02,6.63-9.48,3.53-2.74,6.68-5.85,9.58-9.24,.48-.56,1.47-.7,2.25-.96,1.94-.64,3.47-1.74,4.9-3.25,2.7-2.85,5.84-5.04,9.92-5.69,5.33-.85,10.23-2.76,14.23-6.58,.4-.38,.99-.66,1.53-.76,8.08-1.45,16.05-3.52,24.41-3.19,8.63,.34,17.32-.47,25.92,.65,5.67,.74,11.26,1.83,15.82,5.9,2.63,2.35,6.04,3.52,9.54,3.98,4.83,.64,8.03,3.89,11.42,6.83,.9,.78,1.77,1.59,2.87,1.92,3.82,1.15,6.19,4.06,8.52,6.95,1.56,1.93,3.91,2.8,5.53,4.63,1.11,1.26,2.26,2.46,2.77,4.09,.98,3.14,3.2,5.6,4.71,8.45,.82,1.54,3,2.03,3.63,3.94,1.25,3.78,2.96,7.36,4.95,10.81,.2,.35,.2,.98,.47,1.11,3,1.4,2.2,4.25,2.29,6.54,.33,8.31,.92,16.61,.56,24.94Zm-132.49-5.69c.08,.8,.27,1.96,.31,3.12,.18,6.04,2.86,11.54,3.79,17.39,.69,4.31,3.53,6.33,6.94,8.03,.94,.47,1.79,.92,2.1,1.97,.58,1.97,2.07,2.93,3.84,3.62,4.25,1.66,8.39,3.66,13.01,4.22,.96,.12,1.96,.51,2.79,1.03,3.81,2.41,7.55,2.03,11.31-.08,1.38-.77,2.83-1.73,4.41-1.64,4.81,.27,8.69-2.58,13.08-3.65,1.81-.44,3.07-1.63,3.82-3.33,.6-1.37,1.73-2.01,2.98-2.78,2.65-1.62,5.2-3.43,5.77-6.99,.5-3.1,1.13-6.27,2.32-9.15,2.48-5.97,2.56-12,.68-17.94-1.28-4.05-2.49-8.04-2.82-12.29-.25-3.19-1.42-5.84-4.48-7.52-1.65-.9-3.62-1.39-4.85-2.96-3.43-4.41-8.33-6.03-13.48-7.15-2.4-.52-4.96-.33-7.02-2.1-.8-.68-1.91-.25-2.9-.23-5,.12-9.81,1.59-14.77,2.07-3.95,.38-7.42,2.51-10.41,5-2.15,1.8-4.11,3.79-6.45,5.43-1.81,1.26-4.48,1.85-4.94,4.58-.57,3.39-1.93,6.52-3.02,9.75-1.23,3.64-1.84,7.42-2.02,11.63Z"/>
      <path d="M1632.63,495.76c-4.08-.65-8.24-.32-12.34-1.35-4.35-1.09-8.72,.7-13.1,1.05-8.63,.68-17.25,1.09-25.91,.24-4.03-.4-6.06-3.07-7.94-6.09-1.93-3.09-4.24-5.69-7.92-6.81-1.84-.56-3.03-3.21-2.56-5.93,.75-4.28,1.21-8.57,1.05-12.91-.17-4.54,3.57-6.27,6.23-8.68,1.22-1.11,2.6-2.04,3.64-3.35,1.37-1.73,1.99-3.2,1.18-5.79-1.05-3.4-2.42-6.67-3.45-10.06-.75-2.46-.25-5,.93-7.25,2.29-4.41,6.2-7.21,10.19-9.93,2.62-1.79,5.54-2.8,8.58-3.1,3.43-.34,6.43-1.99,9.73-2.75,4-.93,7.76-.1,11.63-.13,5.85-.04,10.91,2.64,16.14,4.63,2.23,.85,3.29,3.4,4.92,5.14,.68,.72,1.1,1.76,2.08,2.1,3.37,1.16,4.1,4.38,5.27,7.04,1.62,3.66,1.56,7.81,2.68,11.64,.75,2.56,.78,5.32,2.18,7.68,.19,.33,.29,.57,.1,.9-2.23,4.15-1.59,8.58-1.69,13.05-.09,4.12,.06,8.35-.66,12.38-.56,3.18,.78,6.04,.35,9.12-.81,5.83-4.16,9.02-10.1,9.17-.42,.01-.83,0-1.25,0Zm-27.6-57.48c-3.22,0-5.99,.51-8.74,1.22-1.03,.27-1.61,.86-1.67,1.89-.05,.86,.47,1.5,1.24,1.66,4,.86,8.03,1.4,12.1,.54,1.44-.3,1.92-1.48,1.89-2.86-.04-1.42-.94-2.09-2.21-2.28-.98-.15-1.99-.14-2.62-.18Zm-3.82,34.32c2.48-.07,5.02,.07,7.2-1.46,.75-.52,1.49-1.17,1.26-2.25-.22-1.05-1.06-1.39-2-1.62-2.29-.57-4.63-.7-6.94-.35-2.08,.31-4.64,.31-4.93,3.18-.19,1.82,1.67,2.57,5.41,2.49Z"/>
      <path d="M1679.87,436.82c-.63,16.3-.63,32.61-.42,48.91,.07,5.55-4.88,9.9-9.57,9.55-1.24-.09-2.53-.14-3.74,.07-4.56,.79-7.85-1.13-10.51-4.62-1.29-1.7-1.47-3.73-1.53-5.68-.18-6.14-.06-12.28-.27-18.41-.08-2.21-.45-4.53-1.28-6.56-1.93-4.74-2.26-9.56-.96-14.38,.77-2.85,.28-5.61,.14-8.36-.2-3.79,.17-7.57-.11-11.38-.24-3.31,2.41-6.11,4.6-8.55,3.06-3.42,6.73-4.99,11.73-4.29,7.54,1.06,11.9,5.28,11.93,12.97,.01,3.58,0,7.16,0,10.74Z"/>
      <path d="M1544.37,496.27c-2.06,.14-4.48-.6-6.92-1.07-.4-.08-.94-.19-1.12-.48-1.7-2.68-4.91-4.28-5.48-7.76-.27-1.66-.88-3.21-1.83-4.61-2.64-3.91-1.25-6.75,1.87-8.58,2.27-1.34,3.44-3.17,4.16-5.6,.91-3.06,5.36-6.55,9.97-5.78,1.97,.33,3.99,.49,5.89,1.04,2.27,.67,4.17,1.87,4.99,4.41,.94,2.9,1.69,5.88,3.43,8.51,1,1.51,1.2,3.34,.53,5.27-.59,1.7-.74,3.57-1.01,5.38-.4,2.65-2.01,4.71-3.32,6.91-.49,.82-1.28,1.24-2.26,1.39-2.8,.43-5.57,.98-8.89,.98Z"/>
      <path d="M1019.08,479.41c-.41,4.72-.68,9.48-4.58,13.03-.89,.81-1.71,1.55-2.91,1.78-2.37,.46-4.72,1.04-7.11,1.37-3.48,.47-6.46-1.05-9.43-2.61-5.78-3.03-6.27-8.8-7.23-14.2-.52-2.94,2-6.4,4.74-7.68,.58-.27,1.29-.68,1.53-1.21,1.29-2.88,3.94-4.18,6.39-5.72,1.95-1.23,3.89-1.26,5.81,.1,.61,.43,1.23,.97,1.92,1.12,5.14,1.11,7.16,5.55,9.83,9.23,.99,1.35,1.19,3.09,1.04,4.81Z"/>
      <path d="M1666.25,401.85c-.17,0-.33,0-.5,0-9.8,.44-12.37-3.41-14.63-11.81-.64-2.39-.16-4.74,1.63-6.73,2.16-2.4,4.11-4.99,6.27-7.39,1.64-1.81,3.65-3.07,6.24-3.05,1.66,.01,3.33,.1,4.99-.02,3.43-.24,5.15,1.81,6.85,4.42,3.33,5.13,3.54,10.64,2.83,16.43-.44,3.63-2.88,6.67-6.49,7.59-2.37,.6-4.77,.59-7.19,.56Z"/>
      <path d="M307.83,214.92c.2-1.83,.39-3.39,.53-4.97,.29-3.43,3.2-4.95,5.47-6.39,2.71-1.71,3.52-4.36,4.7-6.77,.91-1.87,1.4-4.07,2.07-6.1,1.63-4.92,4.47-9.31,8.24-12.8,3.11-2.87,9.66-2.05,12.97,1.29,3.01,3.05,6.6,5.44,10.27,7.73,5.11,3.19,11.55,3.53,16.12,7.88,1.52,1.45,2.82,3.06,4.06,4.66,1.35,1.74,.06,3.94-.71,5.41-1.22,2.34-1.53,5.04-3.25,7.17-.96,1.2-1.85,2.36-3.28,2.93-3.89,1.55-6.09,4.23-6.47,8.54-.25,2.81-1.01,5.57-.76,8.42,.26,3.03,1.84,3.9,4.46,2.47,.72-.39,1.52-.71,2.13-1.24,4.2-3.69,10.55-3.18,14.82,.33,5.34,4.39,3.85,9.81,3.33,15.21-.09,.93-.65,1.71-1.62,2.05-5.33,1.86-10.68,3.4-16.26,1.02-3.43-1.46-5.29-4.18-6.13-7.72-.4-1.7-.84-3.38-1.26-5.08-.73-3-2.47-3.69-5.91-1.46-1.79,1.16-3.23,2.69-5.44,3.36-3.61,1.09-5.85,.88-8.04-2.2-1.95-2.74-4.54-4.42-7.4-5.93-1.47-.77-2.66-2.06-3.76-3.21-2.33-2.45-5.23-2.81-8.2-2.98-3.55-.2-6.34-2.06-8.82-4.13-2.29-1.91-1.49-5.08-1.86-7.51Z"/>
      <path d="M185.34,282.17c-1.44,.19-3.27,.12-5.03,.76-4.41,1.62-9.14-.25-11.06-4.57-1.72-3.87-4.2-6.08-8.72-6.05-3.22,.02-6.39-.85-9.24-2.65-1.59-1.01-3.71-.89-5.22-2.2-.31-.27-.73-.4-1.05-.66-2.08-1.74-3.42-11.61-1.9-13.8,.41-.59,1.03-.79,1.65-1.03,3.13-1.22,5.29-3.38,6.22-6.65,.3-1.08,.93-1.94,1.61-2.78,3.42-4.16,5.75-8.86,6.76-14.15,.83-4.31,5.62-8.96,11.18-6.97,1.55,.56,3.21,.82,4.81,1.25,1.87,.5,3.61,1.19,4.56,3.1,2.35,4.71,6.95,6.35,11.39,8.17,4.05,1.65,7.97,3.59,11.72,5.79,2.42,1.42,3.69,4.13,4.97,6.52,.64,1.2-.07,3.05-1.4,4.24-2.85,2.55-5.47,5.2-6.98,8.93-.72,1.8-2.24,3.53-4.07,4.6-1.44,.85-2.06,2-2.3,3.6-.51,3.43-1.13,6.86-1.79,10.27-.65,3.36-2.32,4.56-6.14,4.28Z"/>
      <path d="M219.36,286.82c-.47,2.49-.86,5.39-1.59,8.19-.73,2.81-4.57,5.01-7.45,4.68-1.73-.2-3.48-.17-5.22-.27-4.18-.23-7.75-1.3-9.52-5.74-1.07-2.7-2.32-5.33-2.72-8.22-.27-1.9,.63-3.19,1.95-4.74,4.08-4.81,9.52-5.04,15-5.24,5.33-.2,6.57,.79,8.46,5.82,.62,1.65,.87,3.37,1.09,5.51Z"/>
    </g>
  </g>
</svg>