<?xml version="1.0" encoding="UTF-8"?>
<svg id="Capa_2" data-name="Capa 2" xmlns="http://www.w3.org/2000/svg" viewBox="0 0 180.11 77.31">
  <defs>
    <style>
      .cls-1 {
        fill: #fff;
      }
    </style>
  </defs>
  <g id="Capa_1-2" data-name="Capa 1">
    <path class="cls-1" d="M102.45,8.23c4.99-.01,8.99,1.23,11.51,5.37,.74,1.21,2.35,2.95,.43,3.97-1.58,.84-3.99,1.19-5.29-1.08-1.93-3.35-5.05-3.69-8.37-3.34-1.99,.21-3.69,1.21-3.88,3.46-.19,2.27,1.56,3.03,3.36,3.43,1.94,.43,3.93,.63,5.9,.92,5.61,.81,8.99,4.08,9.18,8.81,.13,3.21-1.23,5.79-3.96,7.16-5.33,2.68-10.85,2.89-16.27,.04-1.39-.73-2.54-1.82-3.24-3.25-.68-1.4-2.34-3.13-.32-4.33,1.6-.95,3.75-.76,4.96,1.23,2.13,3.5,5.4,4,8.99,3.4,2.18-.36,4.23-1.47,4.34-3.92,.11-2.39-1.85-3.35-3.93-3.79-2.38-.51-4.8-.85-7.18-1.37-5.3-1.16-7.87-3.91-7.66-8.09,.21-4.18,3.77-7.75,8.5-8.45,1.09-.16,2.21-.13,2.91-.16Z"/>
    <path class="cls-1" d="M145.17,27.95c0-2.54,0-5.09,0-7.63,0-1.08-.34-2.34,.9-2.96,1.28-.64,2.96-.6,3.76,.34,1.52,1.79,2.8,.99,4.32,.33,1.22-.53,2.6-.95,3.83-.23,1.02,.59,1.24,1.83,1.17,2.94-.08,1.33-1.29,1.28-2.24,1.51-4.82,1.19-5.8,2.32-6.07,7.24-.13,2.32-.17,4.65-.14,6.97,.03,2.17-1.24,2.49-3.02,2.5-1.96,0-2.43-.97-2.37-2.72,.09-2.76,.03-5.53,.03-8.29-.06,0-.12,0-.17,0Z"/>
    <path class="cls-1" d="M72.95,39.16c-1.2-2.69-1.43-5.12-.96-7.97,2.06-12.42-5.49-21.88-18.08-22.74-1.8-.12-3.07-.75-4.32-2.01C40.04-3.22,26.34-1.86,18.88,9.53c-1.07,1.63-2.25,2.47-4.12,2.91C4.93,14.79-5.1,27.38,2.91,40.21c.75,1.2,.95,2.38,.61,3.79-3.4,14.07,3.62,23.91,18.17,25.49,1.52,.17,2.76,.66,3.78,1.8,3.78,4.26,8.6,6.1,14.22,6.02,6.22,.05,12.27-3.07,15.67-8.49,1.3-2.07,2.92-3.07,5.18-3.71,11.14-3.17,17.08-15.44,12.41-25.94Zm-43.85,9.46c-2.92,1.28-5.99,.3-8.75-2.94-2.97-3.49-3.27-7.86-3.87-11.58,0-4.92,2.9-8.73,6.67-9.29,3.44-.51,7.55,2.49,8.82,6.72,.8,2.64,1.37,5.36,1.79,8.09,.64,4.08-1.22,7.49-4.67,9.01Zm21.01-5.54c-3.9,.83-7.35-.88-9.03-5.01-1.85-4.56-4.13-9.17-1.84-14.33,2.18-4.92,7.39-6.13,11.42-2.56,4.07,3.6,4.53,8.64,5.26,12.76-.04,4.74-2.62,8.46-5.81,9.13Z"/>
    <path class="cls-1" d="M179.84,35.53c-.11-1.65-.22-3.3-.33-4.95,.09,0,.18-.01,.26-.02-.1-1.76-.08-3.54-.32-5.28-.63-4.75-2.87-7.03-7.59-7.84-2.82-.48-5.59-.03-8.05,1.31-1.67,.91-4.22,2.27-3.19,4.34,1.19,2.38,3.72,.96,5.56,.05,1.72-.86,3.36-1.72,5.34-1.09,1.2,.38,2.47,.89,2.36,2.37-.11,1.55-1.56,1.28-2.6,1.36-2.88,.24-5.77,.47-8.33,1.96-2.18,1.27-3.34,3.19-3.16,5.77,.17,2.41,1.68,3.69,3.76,4.58,2.49,1.06,4.93,1.03,7.41,0,1.6-.66,3.07-1.55,4.68,.39,.79,.95,2.59,.78,3.76,.1,1.21-.7,.49-1.99,.42-3.05Zm-8.14-1.48c-.18,.11-.41,.17-.62,.2-1.95,.31-3.94,.7-5.68-.67-.54-.43-.8-1.11-.4-1.76,1.17-1.93,3.21-1.56,5.01-1.79,.32-.04,.66,0,1.41,0,.76,.12,2.53-.9,2.86,1.02,.29,1.67-1.37,2.29-2.59,3Z"/>
    <path class="cls-1" d="M129.62,17.1c-6,.05-11.43,5.05-11.55,10.63-.12,5.77,5.55,11.11,11.8,11.11,6.25,0,11.65-5.04,11.59-10.82-.07-6.1-5.35-10.98-11.84-10.93Zm.42,17.13c-3.45,.06-6.04-2.53-6.08-6.06-.04-3.45,2.65-6.33,5.89-6.32,3.28,.01,6.1,2.81,6.18,6.13,.08,3.36-2.63,6.19-6,6.25Z"/>
    <path class="cls-1" d="M44.72,30.25c-1.09-1.41-4.78-1.53-2.31-4.7,.64-.82,.72-2.93,2.33-1.6,1.24,1.02,4.76,1.2,2.53,4.36-.69,.86-.4,3-2.55,1.93Z"/>
    <path class="cls-1" d="M44.72,30.25c1.28-.08,1.76-1.21,2.55-1.93,.03,.91,.14,1.74,1.32,1.91,.85,.12,1.59,.71,1.17,1.56-.56,1.13-1.72,.52-2.21,0-.82-.88-2.07-.71-2.83-1.53Z"/>
    <path class="cls-1" d="M22.6,36.32c-.27-.19-.54-.39-.82-.55-2.8-1.57-2.98-3.78-.51-5.92,.53-.46,1.17-.53,1.41-.05,.72,1.44,3.65,1.34,2.7,3.89-.96,.85,.35,4.07-2.78,2.64Z"/>
    <path class="cls-1" d="M22.6,36.32c1.78,.02,1.83-1.78,2.78-2.64-.02,1.07-.37,2.23,1.33,2.46,1.13,.16,1.92,.9,1.14,2.07-.66,1-1.68,.63-2.19-.16-.75-1.18-2.23-.84-3.06-1.74Z"/>
  </g>
</svg>